# xmcd
#
# Track frame offsets: 
#        150
#        16253
#        32390
#        44533
#
# Disc length: 787 seconds
#
# Revision: 0
# Processed by: cddbd v1.5.1PL0 Copyright (c) Steve Scherf et al.
# Submitted via: ExactAudioCopy v0.95a5
#
DISCID=24031104
DTITLE=Mani Wieder Band - Stevie Style - ][Demo E.P.][
DYEAR=1993
DGENRE=Rockblues
TTITLE0=That´s why the Blues is going on
TTITLE1=Devils don´t sleep
TTITLE2=Thunderbird
TTITLE3=Baby Whales cry
EXTD=
EXTT0=
EXTT1=
EXTT2=
EXTT3=
PLAYORDER=
